# xmcd
#
# Track frame offsets:
#	150
#	18615
#	37172
#	67754
#	78988
#	93889
#	114866
#	134691
#
# Disc length: 2188 seconds
#
# Revision: 1
# Processed by: cddbd v1.5.2PL0 Copyright (c) Steve Scherf et al.
# Submitted via: audiograbber 1.83.01
#
DISCID=60088a08
DTITLE=Awesome Color - Massa Hypnos
DYEAR=2010
DGENRE=rock
TTITLE0=Transparent
TTITLE1=Flying
TTITLE2=Oaxaca
TTITLE3=White Cloud
TTITLE4=Vision
TTITLE5=Zombie
TTITLE6=Slaughterhouse
TTITLE7=IOU
EXTD=
EXTT0=
EXTT1=
EXTT2=
EXTT3=
EXTT4=
EXTT5=
EXTT6=
EXTT7=
PLAYORDER=
